<?xml version="1.0" encoding="UTF-8"?>
<svg version="1.1" xmlns="http://www.w3.org/2000/svg" width="24" height="16">
<path d="M0 0 C7.92 0 15.84 0 24 0 C24 5.28 24 10.56 24 16 C16.08 16 8.16 16 0 16 C0 10.72 0 5.44 0 0 Z " fill="#0A091B" transform="translate(0,0)"/>
<path d="M0 0 C7 0 7 0 9 1 C8.67 2.98 8.34 4.96 8 7 C8.66 7.33 9.32 7.66 10 8 C9.625 10.4375 9.625 10.4375 9 13 C7 14 7 14 0 14 C0 9.38 0 4.76 0 0 Z " fill="#1C3594" transform="translate(1,1)"/>
<path d="M0 0 C7 0 7 0 10 2 C9.6875 4.375 9.6875 4.375 9 7 C6 9 6 9 3 9 C3 10.65 3 12.3 3 14 C2.01 14 1.02 14 0 14 C0 9.38 0 4.76 0 0 Z " fill="#5F1D98" transform="translate(13,1)"/>
<path d="M0 0 C0.33 0 0.66 0 1 0 C1 4.62 1 9.24 1 14 C3.97 13.34 6.94 12.68 10 12 C10.33 10.68 10.66 9.36 11 8 C10.01 7.67 9.02 7.34 8 7 C9.24976756 3.34683329 9.67098753 2.21934164 13 0 C13 4.62 13 9.24 13 14 C13.66 14.33 14.32 14.66 15 15 C10.05 15 5.1 15 0 15 C0 10.05 0 5.1 0 0 Z " fill="#0E0F2E" transform="translate(0,1)"/>
<path d="M0 0 C-0.33 1.65 -0.66 3.3 -1 5 C-2.98 5 -4.96 5 -7 5 C-7 3.35 -7 1.7 -7 0 C-3.86650268 -1.04449911 -3.01031744 -0.93423645 0 0 Z " fill="#5B1B8A" transform="translate(23,3)"/>
<path d="M0 0 C2.475 0.495 2.475 0.495 5 1 C4.67 1.99 4.34 2.98 4 4 C2.68 4 1.36 4 0 4 C0 2.68 0 1.36 0 0 Z " fill="#0A112E" transform="translate(3,9)"/>
<path d="M0 0 C1.32 0.33 2.64 0.66 4 1 C3.67 2.32 3.34 3.64 3 5 C2.01 5 1.02 5 0 5 C0 3.35 0 1.7 0 0 Z " fill="#110A24" transform="translate(16,3)"/>
</svg>
